<svg width="20" height="20" viewBox="0 0 20 20" fill="none" xmlns="http://www.w3.org/2000/svg">
<g clip-path="url(#clip0_154_61874)">
<path d="M19.5 6.66667C19.1667 6 18.75 5.41667 18.1667 5C18.0833 4.91667 18 4.83333 17.8333 4.83333C17.5833 4.75 17.25 4.91667 17.0833 5.08333C16.8333 5.41667 16.9167 5.91667 17.25 6.16667C18 6.75 18.5 7.66667 18.5 8.66667V15.25C18.5 17 17.0833 18.4167 15.4167 18.4167H4.66667C2.91667 18.4167 1.58333 17 1.58333 15.25V8.66667C1.58333 7.66667 2 6.75 2.83333 6.16667L8.16667 2.08333C9.25 1.25 10.8333 1.25 11.9167 2.08333L14.8333 4.33333C15.0833 4.5 15.4167 4.58333 15.6667 4.41667C15.9167 4.25 16.0833 4 16.0833 3.75V1.25C16.0833 0.25 14.5833 0.25 14.5 1.25V2.25L12.8333 1C11.1667 -0.25 8.83333 -0.25 7.16667 1L1.83333 5C0.666667 5.91667 0 7.25 0 8.75V15.3333C0 17.9167 2.08333 20 4.66667 20H15.3333C17.9167 20 20 17.9167 20 15.3333V8.75C20 8 19.8333 7.33333 19.5 6.66667Z" fill="#017E59"/>
<path d="M17.8334 4.83333C17.25 4.25 16.6667 3.83333 16.0834 3.41667C14.75 2.5 13.5 2 12.5 1.66667L8.08335 1.25C8.08335 1.25 7.66669 1.58333 7.50002 1.75C5.91669 3 1.41669 6.83333 1.41669 6.83333V17L4.16669 18.9167H17.1667L19.0834 16.0833C19.25 12.9167 19.4167 9.83333 19.5 6.66667C19.0834 6.08333 18.5 5.5 17.8334 4.83333ZM9.41669 10C9.33335 11.3333 7.50002 11.3333 7.50002 10C7.50002 9.5 7.91669 9 8.50002 9C9.00002 9 9.41669 9.41667 9.41669 10ZM9.41669 13.0833C9.33335 14.4167 7.50002 14.4167 7.50002 13.0833C7.50002 11.8333 9.33335 11.8333 9.41669 13.0833ZM12.5 10C12.4167 11.3333 10.5834 11.3333 10.5834 10C10.6667 8.66667 12.5 8.66667 12.5 10ZM12.5 13.0833C12.4167 14.4167 10.5834 14.4167 10.5834 13.0833C10.6667 11.8333 12.5 11.8333 12.5 13.0833Z" fill="#017E59"/>
</g>
<defs>
<clipPath id="clip0_154_61874">
<rect width="20" height="20" fill="white"/>
</clipPath>
</defs>
</svg>


