<svg width="17" height="16" viewBox="0 0 17 16" fill="none" xmlns="http://www.w3.org/2000/svg">
<path d="M12.7475 0.912491C13.8412 0.912491 14.8934 1.34477 15.6674 2.12043C16.4423 2.89446 16.8754 3.93846 16.8754 5.0314V11.4748C16.8754 13.7504 15.0239 15.5937 12.7475 15.5937H4.68993C2.41352 15.5937 0.562866 13.7504 0.562866 11.4748V5.0314C0.562866 2.7558 2.40536 0.912491 4.68993 0.912491H12.7475ZM13.67 5.15374C13.4987 5.14477 13.3356 5.20268 13.2124 5.31687L9.53474 8.25312C9.06168 8.64543 8.38389 8.64543 7.90349 8.25312L4.23318 5.31687C3.97952 5.12927 3.6288 5.15374 3.41755 5.37396C3.19734 5.59418 3.17287 5.9449 3.35964 6.18958L3.46649 6.29562L7.17758 9.19108C7.63433 9.54996 8.18814 9.74571 8.76805 9.74571C9.34633 9.74571 9.90993 9.54996 10.3659 9.19108L14.0451 6.24668L14.1104 6.18143C14.3053 5.9449 14.3053 5.60233 14.1014 5.3658C13.9881 5.24428 13.8323 5.17005 13.67 5.15374Z" fill="white"/>
</svg>
