<svg width="16" height="13" viewBox="0 0 16 13" fill="none" xmlns="http://www.w3.org/2000/svg">
<path fill-rule="evenodd" clip-rule="evenodd" d="M6.35234 1.30079C6.35247 1.19255 6.30702 1.08698 6.22234 0.998873C6.13767 0.910761 6.01801 0.84451 5.88011 0.80939C5.74221 0.77427 5.59297 0.77204 5.45328 0.80301C5.31358 0.833981 5.19043 0.896604 5.10105 0.982114L0.20771 5.65323C0.112252 5.74434 0.0604248 5.85648 0.0604248 5.97191C0.0604248 6.08734 0.112252 6.19947 0.20771 6.29058L5.10105 10.9617C5.19043 11.0472 5.31358 11.1098 5.45328 11.1408C5.59297 11.1718 5.74221 11.1695 5.88011 11.1344C6.01801 11.0993 6.13767 11.0331 6.22234 10.9449C6.30702 10.8568 6.35247 10.7513 6.35234 10.643V8.57216C10.1125 8.63029 11.9189 9.16021 12.8262 9.73631C13.6889 10.2839 13.8468 10.928 14.0111 11.6027L14.0538 11.7766C14.0851 11.901 14.1766 12.0126 14.3111 12.0904C14.4456 12.1682 14.6137 12.2069 14.7838 12.1991C14.954 12.1913 15.1145 12.1376 15.235 12.0481C15.3556 11.9587 15.428 11.8396 15.4386 11.7132C15.5581 10.287 15.3785 8.22027 14.0216 6.49144C12.7046 4.81347 10.3327 3.5232 6.35234 3.38826V1.30079Z" fill="#C4C4C4"/>
</svg>
